<?xml version="1.0" encoding="UTF-8" standalone="no"?>
<svg
   xmlns:dc="http://purl.org/dc/elements/1.1/"
   xmlns:cc="http://creativecommons.org/ns#"
   xmlns:rdf="http://www.w3.org/1999/02/22-rdf-syntax-ns#"
   xmlns:svg="http://www.w3.org/2000/svg"
   xmlns="http://www.w3.org/2000/svg"
   id="svg4"
   version="1.1"
   height="48px"
   width="48px"
   fill="black"
   viewBox="0 0 24 24">
  <metadata
     id="metadata10">
    <rdf:RDF>
      <cc:Work
         rdf:about="">
        <dc:format>image/svg+xml</dc:format>
        <dc:type
           rdf:resource="http://purl.org/dc/dcmitype/StillImage" />
        <dc:title></dc:title>
      </cc:Work>
    </rdf:RDF>
  </metadata>
  <defs
     id="defs8" />
  <g
     id="layer1">
    <path
       id="path2"
       d="M12 22c1.1 0 2-.9 2-2h-4c0 1.1.89 2 2 2zm6-6v-5c0-3.07-1.64-5.64-4.5-6.32V4c0-.83-.67-1.5-1.5-1.5s-1.5.67-1.5 1.5v.68C7.63 5.36 6 7.92 6 11v5l-2 2v1h16v-1l-2-2z"
       style="" />
  </g>
  <g
     id="layer3" />
  <g
     id="layer2">
    <g
       transform="matrix(0.53813559,0,0,0.53813559,10.769605,9.888928)"
       id="g4520"
       style="fill:#000000;stroke-width:1.85826766">
      <path
         style="fill:none;stroke-width:1.85826766"
         d="M 0,0 H 24 V 24 H 0 Z"
         id="path4506" />
      <g
         style="stroke-width:1.85826766"
         id="g4535">
        <g
           style="stroke-width:1.85826766"
           id="g4542">
          <circle
             r="11.847457"
             cy="17.644068"
             cx="31.067799"
             id="path4522"
             style="opacity:1;fill:#ffffff;fill-opacity:1;stroke:none;stroke-width:0.35116869;stroke-linecap:butt;stroke-miterlimit:4;stroke-dasharray:none;stroke-dashoffset:0;stroke-opacity:1"
             transform="translate(-18.915254,-5.4915249)" />
          <path
             style="stroke-width:1.85826766"
             d="m 12.142545,2.1525429 c -5.5200004,0 -9.9900004,4.48 -9.9900004,10.0000001 0,5.52 4.47,10 9.9900004,10 5.53,0 10.01,-4.48 10.01,-10 0,-5.5200001 -4.48,-10.0000001 -10.01,-10.0000001 z m 0.01,18.0000001 c -4.4200004,0 -8.0000004,-3.58 -8.0000004,-8 0,-4.4200001 3.58,-8.0000001 8.0000004,-8.0000001 4.42,0 8,3.58 8,8.0000001 0,4.42 -3.58,8 -8,8 z m 0.5,-13.0000001 h -1.5 v 6.0000001 l 5.25,3.15 0.75,-1.23 -4.5,-2.67 z"
             id="path4508" />
        </g>
      </g>
    </g>
  </g>
</svg>
