<?xml version="1.0" encoding="UTF-8" standalone="no"?>
<svg
   xmlns:dc="http://purl.org/dc/elements/1.1/"
   xmlns:cc="http://creativecommons.org/ns#"
   xmlns:rdf="http://www.w3.org/1999/02/22-rdf-syntax-ns#"
   xmlns:svg="http://www.w3.org/2000/svg"
   xmlns="http://www.w3.org/2000/svg"
   viewBox="0 0 24 24"
   fill="black"
   width="48px"
   height="48px"
   version="1.1"
   id="svg4">
  <metadata
     id="metadata10">
    <rdf:RDF>
      <cc:Work
         rdf:about="">
        <dc:format>image/svg+xml</dc:format>
        <dc:type
           rdf:resource="http://purl.org/dc/dcmitype/StillImage" />
        <dc:title></dc:title>
      </cc:Work>
    </rdf:RDF>
  </metadata>
  <defs
     id="defs8" />
  <g
     id="layer1" />
  <g
     id="layer3" />
  <g
     transform="matrix(0.5381356,0,0,0.5381356,10.769605,9.888928)"
     style="stroke-width:1.85826766"
     id="g4535">
    <path
       d="m 12.142545,2.1525429 c -5.5200004,0 -9.9900004,4.48 -9.9900004,10.0000001 0,5.52 4.47,10 9.9900004,10 5.53,0 10.01,-4.48 10.01,-10 0,-5.5200001 -4.48,-10.0000001 -10.01,-10.0000001 z m 0.01,18.0000001 c -4.4200004,0 -8.0000004,-3.58 -8.0000004,-8 0,-4.4200001 3.58,-8.0000001 8.0000004,-8.0000001 4.42,0 8,3.58 8,8.0000001 0,4.42 -3.58,8 -8,8 z m 0.5,-13.0000001 h -1.5 v 6.0000001 l 5.25,3.15 0.75,-1.23 -4.5,-2.67 z M 2.2864033,-13.730606 c -1.54236221,0 -2.78740156,1.245039 -2.78740156,2.787401 v 1.2630417 c -5.33322824,1.263622 -8.36220464,6.021368 -8.36220464,11.7448325 v 9.2913388 l -3.7165351,3.716535 v 1.858268 H 1.3264194 A 11.847457,11.847457 0 0 1 0.30473546,12.152667 11.847457,11.847457 0 0 1 12.153007,0.30439633 11.847457,11.847457 0 0 1 13.334385,0.36428179 C 12.786301,-4.5690677 9.8496355,-8.5446512 5.0738048,-9.6801633 v -1.2630417 c 0,-1.542362 -1.2450393,-2.787401 -2.7874015,-2.787401 z m -3.7165354,32.519684 c 0,2.044095 1.65385824,3.716536 3.7165354,3.716536 0.9934438,0 1.8938293,-0.400901 2.5623764,-1.041647 A 11.847457,11.847457 0 0 1 2.3517325,18.789078 Z"
       style="stroke-width:1.85826766"
       id="path4508" />
  </g>
</svg>
