<?xml version="1.0" encoding="UTF-8" standalone="no"?>
<svg
   xmlns:dc="http://purl.org/dc/elements/1.1/"
   xmlns:cc="http://creativecommons.org/ns#"
   xmlns:rdf="http://www.w3.org/1999/02/22-rdf-syntax-ns#"
   xmlns:svg="http://www.w3.org/2000/svg"
   xmlns="http://www.w3.org/2000/svg"
   id="svg6"
   version="1.1"
   height="48px"
   width="48px"
   fill="black"
   viewBox="0 0 24 24">
  <metadata
     id="metadata12">
    <rdf:RDF>
      <cc:Work
         rdf:about="">
        <dc:format>image/svg+xml</dc:format>
        <dc:type
           rdf:resource="http://purl.org/dc/dcmitype/StillImage" />
        <dc:title></dc:title>
      </cc:Work>
    </rdf:RDF>
  </metadata>
  <defs
     id="defs10" />
  <path
     id="path2"
     fill="none"
     d="M0 0h24v24H0z" />
  <g
     style="display:inline"
     id="layer1">
    <path
       id="path4"
       transform="scale(0.5)"
       d="M 24 5 C 22.34 5 21 6.34 21 8 L 21 9.359375 C 19.949418 9.6082934 18.983158 9.9875283 18.103516 10.472656 L 23.439453 16 L 29 16 L 29 19.599609 L 28.041016 20.763672 L 36 29.005859 L 36 22 C 36 15.86 32.72 10.719375 27 9.359375 L 27 8 C 27 6.34 25.66 5 24 5 z M 10.539062 6.9785156 L 8 9.5195312 L 13.548828 15.244141 C 12.538131 17.212895 12 19.522388 12 22 L 12 32 L 8 36 L 8 38 L 35.603516 38 L 39.458984 41.978516 L 42 39.439453 L 40 37.378906 L 15.679688 12.279297 L 10.539062 6.9785156 z M 21.462891 23.410156 L 23.841797 25.865234 L 23.400391 26.400391 L 24.361328 26.400391 L 27.849609 30 L 19 30 L 19 26.400391 L 21.462891 23.410156 z M 20 40 C 20 42.2 21.78 44 24 44 C 26.2 44 28 42.2 28 40 L 20 40 z "
       style="stroke-width:2" />
  </g>
</svg>
